# xmcd
#
# Track frame offsets:
#	150
#	13002
#	29812
#	42885
#	56520
#	78632
#	91900
#	104955
#	117590
#	129420
#	144805
#	162862
#	175720
#	188980
#
# Disc length: 2909 seconds
#
# Revision: 0
# Processed by: cddbd v1.5.1PL2 Copyright (c) Steve Scherf et al.
# Submitted via: audiograbber 1.83.01
#
DISCID=bf0b5b0e
DTITLE=Varios - Clássicos da Música Caipira Vol. 2
DYEAR=2005
DGENRE=Caipira
TTITLE0=Inezita Barroso - Lampião de Gáz
TTITLE1=Nalva Aguiar  - Dia de Formatura
TTITLE2=Otavio Augusto e Gabriel - Mala amarela
TTITLE3=Durval e Davi - Saudade da minha terra
TTITLE4=Rafael e Adriel - Desatino
TTITLE5=As Galvão, Liu e Léu, Zico e Zeca - Tocar e cantar
TTITLE6=Julinho e Jannel - Entre lágrimas
TTITLE7=Renato Borghetti - Serrinha
TTITLE8=Pedro Bento e Zé da Estrada - Dama de Vermelho
TTITLE9=Edson Gaúcho - Chapéu de aba larga
TTITLE10=Lourenço e Lourival - Boi fumaça
TTITLE11=Pardinho e Pardal - Vara de marmelo
TTITLE12=Valderi e Mizael - Abismo cruel
TTITLE13=Mococa e Paraíso - Pout-pourri de saudade
EXTD=
EXTT0=
EXTT1=
EXTT2=
EXTT3=
EXTT4=
EXTT5=
EXTT6=
EXTT7=
EXTT8=
EXTT9=
EXTT10=
EXTT11=
EXTT12=
EXTT13=
PLAYORDER=
